<?xml version="1.0" encoding="UTF-8" standalone="no"?>
<!DOCTYPE svg PUBLIC "-//W3C//DTD SVG 1.1//EN" "http://www.w3.org/Graphics/SVG/1.1/DTD/svg11.dtd">
<svg version="1.1" xmlns="http://www.w3.org/2000/svg" xmlns:xlink="http://www.w3.org/1999/xlink" preserveAspectRatio="xMidYMid meet" viewBox="104.74490148634631 127.15549105704778 408.61804355340485 406.2281936992605" width="404.62" height="402.23"><defs><path d="M405.72 275.53C390.68 277.86 373.09 278.08 361.04 269.67C362.92 265.25 362.25 246.89 362.25 237.93C357.17 205.07 360.48 168.68 359.49 134.17C398.76 122.45 444.99 132.18 486.47 128.31C497.86 127.2 507.6 140.59 507.6 140.59C507.87 150.41 510.09 228.99 510.36 238.81C507.38 251.31 510.81 266.57 507.6 279.18C496.09 280.18 495.1 279.85 483.59 279.85C457.38 279.85 431.16 277.53 405.72 275.53" id="a1k1aqmRdI"></path><path d="M275.98 353.4C223.33 349.64 170.23 354.29 117.25 354.84C120.01 333.38 107.4 318.01 105.74 298.54C108.95 247.66 106.19 185.05 124.66 140.59C138.36 140.18 248 136.9 261.71 136.49C282.28 136.16 300.97 131.63 320.66 129.31C321.81 129.31 331.02 129.31 332.17 129.31C334.6 203.97 321.99 281.95 326.64 357.83C323.87 358.05 321.33 358.16 318.78 358.16C303.74 358.05 290.36 354.4 275.98 353.4" id="c5tjIIDuZb"></path><path d="M377.63 527.62C410.81 520.32 443.44 529.83 472.98 524.96C477.4 522.75 480.83 523.64 482.6 523.08C484.7 522.42 485.48 522.64 487.47 519.88C488.79 516.89 489.46 515.34 489.79 514.57C489.83 514.51 490.19 514.07 490.23 514.01C493.22 504.72 496.43 492 498.75 481.6C499.85 476.52 500.85 472.31 501.62 468.77C501.51 468.77 501.51 468.77 501.29 468.77C501.29 468.71 501.29 468.18 501.29 468.11C501.62 467 502.29 464.9 502.95 461.03C502.97 461 503.08 460.85 503.28 460.59C503.28 460.32 503.28 460.17 503.28 460.15C506.16 453.84 509.7 364.47 507.04 313.03C497.29 312.95 448.51 312.54 360.71 311.81C359.44 329.73 358.74 339.69 358.6 341.68C371.88 406.06 351.19 467.45 360.04 527.62C361.21 527.62 367.08 527.62 377.63 527.62" id="a1TU4emAWP"></path><path d="M125.54 530.38L119.24 502.18L119.24 392.56L158.62 391.12L269.45 386.37L325.64 388.03L322.43 517.77L303.63 517.77L289.8 525.63L270.89 530.38L125.54 530.38" id="i8Fg6x6Dc"></path></defs><g><g><use xlink:href="#a1k1aqmRdI" opacity="1" fill="#161a3b" fill-opacity="1"></use><g><use xlink:href="#a1k1aqmRdI" opacity="1" fill-opacity="0" stroke="#000000" stroke-width="1" stroke-opacity="0"></use></g></g><g><use xlink:href="#c5tjIIDuZb" opacity="1" fill="#161a3b" fill-opacity="1"></use><g><use xlink:href="#c5tjIIDuZb" opacity="1" fill-opacity="0" stroke="#000000" stroke-width="1" stroke-opacity="0"></use></g></g><g><use xlink:href="#a1TU4emAWP" opacity="1" fill="#161a3b" fill-opacity="1"></use><g><use xlink:href="#a1TU4emAWP" opacity="1" fill-opacity="0" stroke="#000000" stroke-width="1" stroke-opacity="0"></use></g></g><g><use xlink:href="#i8Fg6x6Dc" opacity="1" fill="#161a3b" fill-opacity="1"></use><g><use xlink:href="#i8Fg6x6Dc" opacity="1" fill-opacity="0" stroke="#000000" stroke-width="1" stroke-opacity="0"></use></g></g></g></svg>